<svg xmlns="http://www.w3.org/2000/svg" xmlns:xlink="http://www.w3.org/1999/xlink" width="74" height="74" viewBox="0 0 74 74"><defs><path id="mbypa" d="M959 948.999c20.434 0 37 16.565 37 37 0 20.434-16.566 37-37 37-20.435 0-37-16.566-37-37 0-20.435 16.565-37 37-37z"/><path id="mbypb" d="M959 954c17.673 0 32 14.325 32 31.998 0 17.673-14.327 32-32 32-17.673 0-32-14.327-32-32C927 968.325 941.327 954 959 954z"/><path id="mbypc" d="M970.926 988.97a.64.64 0 0 1-.567.348h-1.35c-.502 3.495-3.455 7.06-6.78 8.238l.25.312c.177.22.192.535.037.774l-1.98 3.062a.638.638 0 0 1-.536.295.639.639 0 0 1-.536-.295l-1.98-3.062a.665.665 0 0 1 .037-.774l.249-.312c-3.325-1.178-6.277-4.743-6.78-8.238h-1.35a.64.64 0 0 1-.566-.348.667.667 0 0 1 .036-.674l2.509-3.774a.638.638 0 0 1 1.061 0l2.51 3.774c.133.2.146.46.035.674a.64.64 0 0 1-.566.348h-1.239c.534 2.248 2.749 4.048 5.084 4.613v-14.465h-1.995c-.55 0-.997-.456-.997-1.018s.446-1.018.997-1.018h1.027a3.728 3.728 0 0 1-1.176-2.717c0-2.048 1.633-3.715 3.64-3.715 2.006 0 3.64 1.667 3.64 3.715a3.73 3.73 0 0 1-1.177 2.717h1.028c.55 0 .997.456.997 1.018s-.446 1.018-.997 1.018h-1.995v14.465c2.335-.565 4.549-2.366 5.083-4.613h-1.238a.64.64 0 0 1-.567-.348.667.667 0 0 1 .036-.674l2.51-3.774a.637.637 0 0 1 1.06 0l2.51 3.774c.133.2.147.46.036.674zm-12.571-14.257c0 .926.738 1.679 1.645 1.679s1.645-.753 1.645-1.68c0-.925-.738-1.678-1.645-1.678s-1.645.753-1.645 1.679z"/></defs><g><g transform="translate(-922 -949)"><g opacity=".25"><use fill="#fff" xlink:href="#mbypa"/></g><g><use fill="#f4f5f9" xlink:href="#mbypb"/></g><g><use fill="#e74c3c" xlink:href="#mbypc"/></g></g></g></svg>