<svg xmlns="http://www.w3.org/2000/svg" xmlns:xlink="http://www.w3.org/1999/xlink" width="64" height="64" viewBox="0 0 64 64"><defs><path id="tqofa" d="M1039 2396c17.673 0 32 14.326 32 31.998 0 17.674-14.327 32-32 32-17.673 0-32-14.326-32-32 0-17.672 14.327-31.999 32-31.999z"/><path id="tqofb" d="M1047.066 2439.559c0 .243-.2.44-.445.44h-14.242a.443.443 0 0 1-.445-.44c0-.244.2-.44.445-.44h5.192v-1.907c0-.243.2-.44.445-.44.246 0 .445.197.445.44v1.907h2.077v-1.907c0-.243.2-.44.445-.44.246 0 .445.197.445.44v1.907h5.193c.246 0 .445.196.445.44zm5.934-20.533v15.84c0 .566-.466 1.026-1.038 1.026h-.742v.148c0 .242-.2.439-.445.439a.442.442 0 0 1-.445-.44v-.147h-.89v.148c0 .242-.2.439-.446.439a.442.442 0 0 1-.445-.44v-.147h-.89v.148c0 .242-.199.439-.445.439a.442.442 0 0 1-.445-.44v-.147h-19.73c-.573 0-1.04-.46-1.04-1.026v-15.84c0-.566.467-1.027 1.04-1.027h24.923c.572 0 1.038.46 1.038 1.027zm-.89 0a.15.15 0 0 0-.148-.147h-24.924a.15.15 0 0 0-.148.147v15.84a.15.15 0 0 0 .148.146h24.924a.15.15 0 0 0 .148-.146zm-.89 1.173v9.387c0 .243-.2.44-.445.44a.442.442 0 0 1-.445-.44v-8.947h-22.105a.443.443 0 0 1-.445-.44c0-.243.2-.44.445-.44h22.55c.245 0 .445.197.445.44zm0 11.147v2.346c0 .243-.2.44-.445.44h-22.55a.443.443 0 0 1-.445-.44v-11.733c0-.243.2-.44.445-.44.246 0 .445.197.445.44v11.294h21.66v-1.907c0-.243.199-.44.445-.44.245 0 .445.197.445.44z"/></defs><g><g transform="translate(-1007 -2396)"><use fill="#f4f5f9" xlink:href="#tqofa"/></g><g transform="translate(-1007 -2396)"><use fill="#e74c3c" xlink:href="#tqofb"/></g></g></svg>