<svg xmlns="http://www.w3.org/2000/svg" xmlns:xlink="http://www.w3.org/1999/xlink" width="64" height="64" viewBox="0 0 64 64"><defs><path id="b0j8a" d="M1039 2682.998c17.673 0 32 14.328 32 32 0 17.674-14.327 32-32 32-17.673 0-32-14.326-32-32 0-17.672 14.327-32 32-32z"/><path id="b0j8b" d="M1051 2711.597v10.98c0 1.863-1.511 3.422-3.352 3.422h-18.296c-1.841 0-3.352-1.559-3.352-3.422v-10.98c0-1.865 1.511-3.396 3.352-3.396l2.431-.014 2.596-3.812a.826.826 0 0 1 .673-.376h6.772a.83.83 0 0 1 .687.39l2.514 3.798 2.623.014c1.84 0 3.352 1.531 3.352 3.396zm-1.648 10.98h-.014v-10.98c0-.946-.77-1.725-1.703-1.725l-3.077-.028a.846.846 0 0 1-.673-.376l-2.5-3.786h-5.893l-2.596 3.813a.824.824 0 0 1-.673.376h-2.871c-.934 0-1.704.78-1.704 1.726v10.98c0 .945.77 1.752 1.704 1.752h18.296c.934 0 1.704-.807 1.704-1.752zm-4.945-6.458c0 3.256-2.624 5.914-5.838 5.914-3.215 0-5.838-2.658-5.838-5.914s2.61-5.914 5.838-5.914c3.214 0 5.838 2.658 5.838 5.914zm-1.649 0c0-2.338-1.882-4.243-4.19-4.243-2.307 0-4.189 1.905-4.189 4.243s1.882 4.244 4.19 4.244c2.307 0 4.19-1.906 4.19-4.244zm3.627-3.785c.174 0 .316.143.316.32 0 .177-.142.32-.316.32a.318.318 0 0 1-.316-.32c0-.177.141-.32.316-.32zm1.14.32c0 .64-.509 1.155-1.14 1.155-.632 0-1.14-.515-1.14-1.154 0-.641.508-1.156 1.14-1.156.631 0 1.14.515 1.14 1.156zm-.632 0a.52.52 0 0 0-.508-.515.52.52 0 0 0-.509.516c0 .278.22.514.509.514a.51.51 0 0 0 .508-.514z"/></defs><g><g transform="translate(-1007 -2683)"><use fill="#f4f5f9" xlink:href="#b0j8a"/></g><g transform="translate(-1007 -2683)"><use fill="#e74c3c" xlink:href="#b0j8b"/></g></g></svg>