<svg xmlns="http://www.w3.org/2000/svg" xmlns:xlink="http://www.w3.org/1999/xlink" width="64" height="64" viewBox="0 0 64 64"><defs><path id="bulua" d="M1039 2539.999c17.673 0 32 14.326 32 32 0 17.673-14.327 32-32 32-17.673 0-32-14.327-32-32 0-17.674 14.327-32 32-32z"/><path id="bulub" d="M1042.855 2559.314l11.373 5.484c.434.21.772.554.772.999 0 .445-.338.788-.772.998l-12.004 5.79a.45.45 0 0 1-.188.044l-8.529.153a.462.462 0 0 1-.204-.045l-8.53-4.114c-.434-.209-.771-.553-.771-.998 0-.444.337-.789.772-.998l15.163-7.313c.434-.21.947-.315 1.46-.315.512 0 1.024.105 1.458.315zm-2.527.777l-15.162 7.313c-.254.123-.277.217-.278.22.001.005.024.1.278.222l8.017 3.866 4.227-2.038a.448.448 0 0 1 .391 0l4.227 2.038 11.808-5.695c.253-.122.276-.216.278-.22-.002-.005-.025-.099-.278-.22l-11.372-5.486c-.266-.128-.667-.192-1.068-.192-.4 0-.802.064-1.068.192zm13.786 5.706zm-29.226 1.828zm17.87-5.68l6.318 3.048.01.005c.108.055.15.187.093.292a.222.222 0 0 1-.3.091l-6.317-3.046a.218.218 0 0 1-.127-.19.219.219 0 0 1 .216-.223.225.225 0 0 1 .107.024zm-3.16 1.525l6.319 3.047.01.004c.108.056.15.188.093.294a.223.223 0 0 1-.3.09l-6.317-3.048a.216.216 0 0 1-.126-.188.22.22 0 0 1 .215-.224c.037 0 .074.008.107.025zm-3.158 1.523l6.318 3.047c.11.053.154.183.1.29a.224.224 0 0 1-.296.099l-6.318-3.048a.216.216 0 0 1-.126-.189.22.22 0 0 1 .215-.223c.037 0 .074.007.107.024zm-5.366.253a.215.215 0 0 1-.105.288l-4.335 2.09 1.808.874c.004 0 .007.003.01.004.109.056.15.186.094.293a.224.224 0 0 1-.3.09l-2.21-1.065a.214.214 0 0 1 0-.389l4.738-2.286a.224.224 0 0 1 .3.1zm3.743 6.645l5.378-.096-2.59-1.249zm20.049-.989a.523.523 0 0 1-.26.701l-16.954 8.06a.546.546 0 0 1-.476-.004l-12.868-6.322-.012-.006a.521.521 0 0 1-.23-.71.543.543 0 0 1 .724-.225l12.631 6.206 16.716-7.947a.539.539 0 0 1 .729.247zm-11.893 4.056a.26.26 0 0 1-.126.352l-5.377 2.632a.276.276 0 0 1-.243-.001l-4.839-2.421a.261.261 0 0 1-.117-.355c.068-.129.23-.18.362-.115l4.718 2.362 5.256-2.572a.271.271 0 0 1 .366.118zm11.893 1.195a.52.52 0 0 1-.26.699l-16.954 8.06a.548.548 0 0 1-.476-.003l-12.868-6.324a.521.521 0 0 1-.245-.722.543.543 0 0 1 .727-.218l12.631 6.207 16.716-7.946a.535.535 0 0 1 .244-.056c.208 0 .397.118.485.303zm-11.893 4.055a.26.26 0 0 1-.126.351l-5.377 2.632a.274.274 0 0 1-.242-.001l-4.84-2.421-.007-.003a.261.261 0 0 1-.112-.357.272.272 0 0 1 .364-.108l4.718 2.36 5.256-2.573a.27.27 0 0 1 .121-.029c.104 0 .2.057.245.15z"/></defs><g><g transform="translate(-1007 -2540)"><use fill="#f4f5f9" xlink:href="#bulua"/></g><g transform="translate(-1007 -2540)"><use fill="#e74c3c" xlink:href="#bulub"/></g></g></svg>